<?xml version="1.0" standalone="no"?>
<!DOCTYPE svg PUBLIC "-//W3C//DTD SVG 20010904//EN"
 "http://www.w3.org/TR/2001/REC-SVG-20010904/DTD/svg10.dtd">
<svg version="1.0" xmlns="http://www.w3.org/2000/svg"
 width="500.000000pt" height="500.000000pt" viewBox="0 0 500.000000 500.000000"
 preserveAspectRatio="xMidYMid meet">
<metadata>
Created by potrace 1.14, written by Peter Selinger 2001-2017
</metadata>
<g transform="translate(0.000000,500.000000) scale(0.100000,-0.100000)"
fill="#000000" stroke="none">
<path d="M2870 4490 c-101 -18 -275 -71 -390 -120 -239 -102 -556 -308 -785
-510 -109 -97 -317 -315 -365 -384 -8 -12 -23 -30 -33 -41 -17 -18 -117 -164
-144 -210 -29 -49 -121 -244 -135 -285 -37 -112 -39 -119 -57 -225 -13 -74
-11 -237 4 -300 7 -30 11 -55 9 -55 -9 0 66 -162 98 -211 56 -87 177 -210 264
-266 11 -7 36 -24 57 -38 67 -44 179 -101 272 -138 125 -49 263 -80 445 -101
25 -3 78 -10 119 -16 41 -6 113 -13 160 -16 47 -3 93 -8 101 -11 8 -3 -32 -17
-90 -32 -111 -29 -305 -89 -330 -102 -8 -4 -53 -26 -100 -48 -208 -97 -334
-222 -369 -365 -54 -219 66 -412 304 -488 112 -36 355 -42 481 -13 12 2 39 7
60 11 21 3 42 8 45 10 3 2 20 6 38 9 68 12 277 87 376 135 58 27 107 50 110
50 3 0 11 5 18 10 7 6 44 32 84 58 39 26 88 61 109 77 78 62 220 213 264 280
24 39 47 72 50 75 26 25 117 258 135 347 26 129 27 315 1 395 -68 214 -286
366 -670 468 -61 16 -151 37 -201 46 -49 9 -99 18 -110 20 -11 3 -90 18 -175
34 -205 39 -248 53 -298 95 -72 62 -70 130 8 248 48 75 49 76 157 127 248 119
573 283 648 326 238 139 415 281 492 396 57 84 77 145 80 244 2 103 -10 153
-61 259 -108 218 -354 311 -676 255z"/>
<path d="M3290 3233 c-13 -5 -96 -68 -110 -83 -9 -10 -134 -105 -165 -125 -91
-60 -209 -114 -309 -142 -53 -15 -93 -29 -91 -32 3 -2 42 -12 87 -22 100 -22
334 -20 438 4 229 53 349 152 318 263 -10 39 -15 47 -63 99 -30 32 -76 49
-105 38z"/>
<path d="M1132 1643 c-19 -7 -58 -73 -66 -110 -9 -41 14 -93 52 -115 108 -64
337 -62 527 3 83 29 97 44 44 48 -37 2 -121 17 -199 35 -39 9 -130 47 -185 78
-103 56 -146 72 -173 61z"/>
<path d="M3928 1462 c-19 -23 -34 -56 -59 -132 -34 -101 -82 -190 -150 -276
-34 -44 -67 -82 -73 -86 -28 -19 24 -5 88 24 149 68 251 152 325 267 76 119
45 200 -85 217 -21 2 -36 -2 -46 -14z"/>
</g>
</svg>
