<svg xmlns="http://www.w3.org/2000/svg" xmlns:xlink="http://www.w3.org/1999/xlink" viewBox="0,0,256,256" width="100px" height="100px"><g fill="#21ca1b" fill-rule="nonzero" stroke="none" stroke-width="1" stroke-linecap="butt" stroke-linejoin="miter" stroke-miterlimit="10" stroke-dasharray="" stroke-dashoffset="0" font-family="none" font-weight="none" font-size="none" text-anchor="none" style="mix-blend-mode: normal"><g transform="scale(5.12,5.12)"><path d="M1,9c-0.552,0 -1,0.448 -1,1v14.11523c0,6.161 4.68298,11.51624 10.83398,11.86523c5.897,0.334 10.91389,-3.80408 11.96289,-9.33008c0.57,0.77 1.14937,1.48558 1.73438,2.14258l-3.5293,14.97852c-0.069,0.298 0.00045,0.60861 0.18945,0.84961c0.191,0.238 0.47916,0.37891 0.78516,0.37891h5.11914c0.464,0 0.8637,-0.31267 0.9707,-0.76367c0.621,-2.621 1.59456,-6.72817 2.47656,-10.45117l0.91016,0.52734c2.165,1.121 4.36187,1.6875 6.54688,1.6875c7.192,0 12.926,-6.359 11.875,-13.75c-0.696,-4.896 -4.46092,-8.93166 -9.29492,-9.97266c-5.629,-1.213 -11.05472,1.6718 -13.38672,6.4668c0,0 -0.2588,0.57444 -0.4668,1.14844c-1.65,-2.846 -2.61895,-5.7985 -3.12695,-7.9375c-0.185,-0.78 -0.46214,-2.1922 -0.49414,-2.2832c-0.139,-0.403 -0.51636,-0.67187 -0.94336,-0.67187h-5.16211c-0.552,0 -1,0.448 -1,1v14.30078c0,2.349 -1.71278,4.44974 -4.05078,4.67773c-2.682,0.262 -4.94922,-1.84852 -4.94922,-4.47852v-14.5c0,-0.552 -0.448,-1 -1,-1zM38,19c2.757,0 5,2.243 5,5c0,2.757 -2.243,5 -5,5c-2.225,0 -4.28647,-1.34172 -5.73047,-2.51172c0.527,-2.225 0.88072,-3.71523 0.88672,-3.74023c0.568,-2.207 2.56075,-3.74805 4.84375,-3.74805z"></path></g></g></svg>